<svg width="110" height="50" viewBox="0 0 110 50" fill="none" xmlns="http://www.w3.org/2000/svg">
<g id="Group 1">
<rect id="Rectangle 13" width="110" height="50" rx="25" fill="#2D2F30"/>
<circle id="Ellipse 1" cx="85" cy="25" r="20" fill="#151718"/>
<path id="Vector" d="M84.38 15C83.6431 15.6866 83.0521 16.5146 82.6422 17.4346C82.2323 18.3546 82.0119 19.3477 81.9941 20.3548C81.9763 21.3618 82.1616 22.3621 82.5388 23.296C82.916 24.2299 83.4774 25.0782 84.1896 25.7904C84.9018 26.5026 85.7501 27.064 86.684 27.4412C87.6179 27.8184 88.6182 28.0037 89.6252 27.9859C90.6323 27.9681 91.6254 27.7477 92.5454 27.3378C93.4654 26.9279 94.2934 26.3369 94.98 25.6C94.662 30.835 90.316 34.981 85.001 34.981C79.477 34.981 75 30.504 75 24.981C75 19.666 79.146 15.32 84.38 15Z" fill="#0A55C6"/>
<path id="Vector_2" d="M22 32C20.4087 32 18.8826 31.3679 17.7574 30.2426C16.6321 29.1174 16 27.5913 16 26C16 24.4087 16.6321 22.8826 17.7574 21.7574C18.8826 20.6321 20.4087 20 22 20C23.5913 20 25.1174 20.6321 26.2426 21.7574C27.3679 22.8826 28 24.4087 28 26C28 27.5913 27.3679 29.1174 26.2426 30.2426C25.1174 31.3679 23.5913 32 22 32ZM21 15H23V18H21V15ZM21 34H23V37H21V34ZM13.515 18.929L14.929 17.515L17.05 19.636L15.636 21.05L13.515 18.93V18.929ZM26.95 32.364L28.364 30.95L30.485 33.071L29.071 34.485L26.95 32.364ZM29.071 17.514L30.485 18.929L28.364 21.05L26.95 19.636L29.071 17.515V17.514ZM15.636 30.95L17.05 32.364L14.929 34.485L13.515 33.071L15.636 30.95ZM33 25V27H30V25H33ZM14 25V27H11V25H14Z" fill="#F2DB00"/>
</g>
</svg>
