<svg width="20" height="20" viewBox="0 0 20 20" fill="none" xmlns="http://www.w3.org/2000/svg">
<g id="google-fill 1" clip-path="url(#clip0_921_59)">
<path id="Vector" d="M2.55342 6.25834C3.24676 4.87771 4.31039 3.7171 5.62544 2.90623C6.94049 2.09536 8.45513 1.66619 10.0001 1.66667C12.2459 1.66667 14.1326 2.49167 15.5751 3.83751L13.1859 6.22751C12.3217 5.40167 11.2234 4.98084 10.0001 4.98084C7.82925 4.98084 5.99175 6.44751 5.33758 8.41667C5.17092 8.91667 5.07592 9.45001 5.07592 10C5.07592 10.55 5.17092 11.0833 5.33758 11.5833C5.99258 13.5533 7.82925 15.0192 10.0001 15.0192C11.1209 15.0192 12.0751 14.7233 12.8217 14.2233C13.2546 13.9383 13.6252 13.5685 13.9111 13.1363C14.197 12.704 14.3922 12.2182 14.4851 11.7083H10.0001V8.48501H17.8484C17.9467 9.03001 18.0001 9.59834 18.0001 10.1892C18.0001 12.7275 17.0917 14.8642 15.5151 16.3142C14.1367 17.5875 12.2501 18.3333 10.0001 18.3333C8.90561 18.3338 7.82178 18.1185 6.81054 17.6999C5.79929 17.2813 4.88046 16.6674 4.10655 15.8935C3.33264 15.1196 2.71883 14.2008 2.30019 13.1896C1.88156 12.1783 1.66631 11.0945 1.66675 10C1.66675 8.65501 1.98842 7.38334 2.55342 6.25834Z" fill="black"/>
</g>
<defs>
<clipPath id="clip0_921_59">
<rect width="20" height="20" fill="white"/>
</clipPath>
</defs>
</svg>
