<svg width="40" height="40" viewBox="0 0 40 40" fill="none" xmlns="http://www.w3.org/2000/svg">
<g id="Group 12">
<path id="Ellipse 5" d="M20 40C24.4562 40 28.7848 38.5117 32.2989 35.7714C35.8129 33.0311 38.3111 29.1956 39.3971 24.8738C40.483 20.5519 40.0944 15.9911 38.2931 11.9152C36.4917 7.83928 33.3806 4.48173 29.4537 2.37535C25.5267 0.268964 21.0087 -0.465593 16.6167 0.288244C12.2247 1.04208 8.21025 3.24113 5.21041 6.53642C2.21056 9.83171 0.397179 14.0345 0.0580139 18.4778C-0.281155 22.9211 0.873329 27.3504 3.33826 31.0628L13.3353 24.4251C12.3493 22.9402 11.8875 21.1684 12.0232 19.3911C12.1589 17.6138 12.8842 15.9327 14.0842 14.6146C15.2841 13.2965 16.8899 12.4168 18.6467 12.1153C20.4035 11.8138 22.2107 12.1076 23.7815 12.9501C25.3523 13.7927 26.5967 15.1357 27.3172 16.7661C28.0378 18.3964 28.1932 20.2207 27.7588 21.9495C27.3245 23.6783 26.3252 25.2124 24.9196 26.3086C23.5139 27.4047 21.7825 28 20 28V40Z" fill="#D53F8C"/>
<path id="Ellipse 8" d="M20 40C23.289 40 26.5273 39.1889 29.4279 37.6384C32.3286 36.088 34.8021 33.8461 36.6294 31.1114C38.4567 28.3767 39.5813 25.2335 39.9037 21.9603C40.2261 18.6872 39.7362 15.385 38.4776 12.3463C37.2189 9.30767 35.2303 6.62632 32.6879 4.53979C30.1454 2.45326 27.1276 1.02595 23.9018 0.384295C20.676 -0.257361 17.3417 -0.0935589 14.1943 0.861193C11.0469 1.81594 8.18355 3.53218 5.85786 5.85786L14.3431 14.3431C15.2734 13.4129 16.4188 12.7264 17.6777 12.3445C18.9367 11.9626 20.2704 11.8971 21.5607 12.1537C22.8511 12.4104 24.0582 12.9813 25.0751 13.8159C26.0921 14.6505 26.8876 15.7231 27.391 16.9385C27.8945 18.154 28.0904 19.4749 27.9615 20.7841C27.8325 22.0934 27.3827 23.3507 26.6518 24.4446C25.9208 25.5385 24.9314 26.4352 23.7712 27.0554C22.6109 27.6755 21.3156 28 20 28V40Z" fill="#805AD5"/>
<path id="Ellipse 6" d="M20 40C23.7509 40 27.4263 38.9452 30.6063 36.956C33.7863 34.9669 36.3429 32.1235 37.984 28.7507C39.6252 25.3778 40.2848 21.6114 39.8875 17.8816C39.4902 14.1518 38.052 10.6089 35.7372 7.6574L26.2949 15.063C27.2208 16.2435 27.7961 17.6607 27.955 19.1526C28.1139 20.6446 27.8501 22.1511 27.1936 23.5003C26.5372 24.8494 25.5145 25.9867 24.2425 26.7824C22.9705 27.5781 21.5004 28 20 28V40Z" fill="#38B2AC"/>
<path id="Ellipse 7" d="M20 40C24.1046 40 28.1099 38.7371 31.4721 36.3826C34.8343 34.0282 37.3907 30.6963 38.7943 26.8391L27.5177 22.7356C26.9563 24.2785 25.9337 25.6113 24.5888 26.5531C23.2439 27.4948 21.6419 28 20 28V40Z" fill="#F6E05E"/>
<circle id="Ellipse 9" cx="20" cy="20" r="3.2" fill="#6B46C1"/>
<circle id="Ellipse 10" cx="11.68" cy="34.24" r="3.2" fill="#F6AD55"/>
</g>
</svg>
